<svg width="120" height="36" viewBox="0 0 120 36" fill="none" xmlns="http://www.w3.org/2000/svg">
  <path d="M60 18C60 22.9706 55.9706 27 51 27C46.0294 27 42 22.9706 42 18C42 13.0294 46.0294 9 51 9C55.9706 9 60 13.0294 60 18Z" stroke="black" stroke-width="2"/>
  <path d="M58 18C58 18 55 14 51 14C47 14 44 18 44 18" stroke="black" stroke-width="2"/>
  <path d="M58 18C58 18 55 22 51 22C47 22 44 18 44 18" stroke="black" stroke-width="2"/>
  <path d="M51 9C51 9 47 13 47 18C47 23 51 27 51 27" stroke="black" stroke-width="2"/>
  <path d="M51 9C51 9 55 13 55 18C55 23 51 27 51 27" stroke="black" stroke-width="2"/>
  <path d="M65 18H78" stroke="black" stroke-width="2"/>
  <path d="M65 14H78" stroke="black" stroke-width="2"/>
  <path d="M65 22H78" stroke="black" stroke-width="2"/>
</svg> 