<svg width="120" height="36" viewBox="0 0 120 36" fill="none" xmlns="http://www.w3.org/2000/svg">
  <path d="M45 18C45 15.7909 46.7909 14 49 14H51C53.2091 14 55 15.7909 55 18V22C55 24.2091 53.2091 26 51 26H49C46.7909 26 45 24.2091 45 22V18Z" stroke="black" stroke-width="2"/>
  <path d="M55 18H60" stroke="black" stroke-width="2"/>
  <path d="M40 18H45" stroke="black" stroke-width="2"/>
  <path d="M50 14V10" stroke="black" stroke-width="2"/>
  <path d="M50 26V30" stroke="black" stroke-width="2"/>
  <path d="M60 18C60 15.7909 61.7909 14 64 14H66C68.2091 14 70 15.7909 70 18V22C70 24.2091 68.2091 26 66 26H64C61.7909 26 60 24.2091 60 22V18Z" stroke="black" stroke-width="2"/>
  <path d="M70 18H75" stroke="black" stroke-width="2"/>
  <path d="M75 18C75 15.7909 76.7909 14 79 14H81C83.2091 14 85 15.7909 85 18V22C85 24.2091 83.2091 26 81 26H79C76.7909 26 75 24.2091 75 22V18Z" stroke="black" stroke-width="2"/>
</svg> 